<?xml version="1.0" encoding="UTF-8"?>
<svg width="100px" height="100px" viewBox="0 0 100 100" version="1.1" xmlns="http://www.w3.org/2000/svg" xmlns:xlink="http://www.w3.org/1999/xlink">
    <!-- Generator: Sketch 41.2 (35397) - http://www.bohemiancoding.com/sketch -->
    <title>Artboard</title>
    <desc>Created with Sketch.</desc>
    <defs></defs>
    <g id="Page-1" stroke="none" stroke-width="1" fill="none" fill-rule="evenodd">
        <g id="Artboard" fill="#C12126">
            <path d="M49.999488,31.0891069 C39.5568162,31.0891069 31.0894252,39.5543632 31.0894252,49.998976 C31.0894252,60.4425649 39.5568162,68.9098691 49.999488,68.9098691 C60.4431838,68.9098691 68.9105748,60.4425649 68.9105748,49.998976 C68.9105748,39.5543632 60.4431838,31.0891069 49.999488,31.0891069 Z M20.5126105,49.998976 C20.5126105,33.7135719 33.7139171,20.5134244 49.998464,20.5134244 C66.2850589,20.5134244 79.4853416,33.7145958 79.4853416,49.998976 C79.4853416,51.0772287 79.427998,52.1401216 79.3153589,53.1866309 C79.0911046,56.0609474 81.2005284,58.2553401 84.0564424,58.2553401 C88.9040212,58.2553401 89.4201133,52.0049561 89.4201133,50 C89.4201133,28.2270782 71.7705848,10.5777304 49.99744,10.5777304 C28.2242952,10.5777304 10.5768148,28.2260542 10.5768148,49.998976 C10.5768148,71.7708739 28.2263432,89.4202216 49.998464,89.4202216 C61.5613832,89.4202216 71.9620713,84.4446948 79.173024,76.5160048 L87.2779217,83.3213869 C78.123432,93.5550595 64.8125582,100 49.998464,100 C22.3854921,100 0,77.6126892 0,49.998976 C0,22.3852629 22.3854921,0 49.999488,0 C77.6145079,0 100,22.3852629 100,49.998976 C100,61.0989371 94.7141526,70.1120236 84.0994501,70.1120236 C79.427998,70.1120236 76.5874438,67.9719019 75.0371197,65.5829528 C69.8290957,73.9294272 60.5640149,79.4865756 49.999488,79.4865756 C33.7139171,79.4865756 20.5126105,66.2833562 20.5126105,49.998976 Z M49.999488,41.3463311 C54.7794833,41.3463311 58.6542695,45.2200537 58.6542695,49.998976 C58.6542695,54.7789224 54.7794833,58.6536689 49.999488,58.6536689 C45.2205167,58.6536689 41.3457305,54.7778984 41.3457305,49.998976 C41.3457305,45.2200537 45.2205167,41.3463311 49.999488,41.3463311 Z" id="Shape"></path>
        </g>
    </g>
</svg>